<svg xmlns="http://www.w3.org/2000/svg" viewBox="0 0 128 128">
  <path d="M64 24C41.9 24 24 41.9 24 64s17.9 40 40 40c19.8 0 36.3-14.4 39.4-33.3H64V58.7h50.9c.5 2.8.8 5.7.8 8.7 0 28.7-23.3 52-52 52S12 96.1 12 67.4 35.3 15.4 64 15.4c13.5 0 25.8 5.2 35 13.7L88.4 39.7C82.3 34.2 73.6 31 64 31c-18.2 0-33 14.8-33 33s14.8 33 33 33c15.4 0 28.4-10.5 32-24.7H64V58.7h39.4c-3.1-18.9-19.6-33.3-39.4-33.3z" fill="#4285f4"/>
  <path d="M64 24v7c13.5 0 25.8 5.2 35 13.7L88.4 39.7C82.3 34.2 73.6 31 64 31z" fill="#ea4335"/>
  <path d="M31 64c0-5.5 1.4-10.7 3.8-15.2l-10.6-8.2C20.8 47.2 19 55.4 19 64s1.8 16.8 5.2 23.4l10.6-8.2C32.4 74.7 31 69.5 31 64z" fill="#fbbc05"/>
  <path d="M64 97c-9.6 0-18.3-4.1-24.4-10.6l-10.6 8.2C37.2 104.8 49.5 111 64 111c11.1 0 21.3-3.6 29.6-9.7l-10.2-7.9C78.4 95.5 71.5 97 64 97z" fill="#34a853"/>
</svg>
